<?xml version="1.0" standalone="no"?>
<!DOCTYPE svg PUBLIC "-//W3C//DTD SVG 20010904//EN"
 "http://www.w3.org/TR/2001/REC-SVG-20010904/DTD/svg10.dtd">
<svg version="1.0" xmlns="http://www.w3.org/2000/svg"
 width="700.000000pt" height="700.000000pt" viewBox="0 0 700.000000 700.000000"
 preserveAspectRatio="xMidYMid meet">
<metadata>
Created by potrace 1.14, written by Peter Selinger 2001-2017
</metadata>
<g transform="translate(0.000000,700.000000) scale(0.100000,-0.100000)"
fill="#000000" stroke="none">
<path d="M847 6191 c-795 -6 -819 -7 -833 -25 -12 -17 -14 -309 -14 -2027 0
-1920 1 -2008 18 -2029 l18 -22 1252 -6 1252 -5 0 -263 0 -264 -414 0 -415 0
-20 -26 c-20 -25 -21 -40 -21 -219 0 -179 1 -194 21 -219 l20 -26 1305 0 1304
0 0 -116 0 -116 34 -34 34 -34 1261 0 c1386 0 1303 -4 1336 60 13 26 15 226
15 1702 0 1654 0 1673 -20 1706 -11 18 -32 37 -46 42 -15 6 -180 10 -398 10
l-373 0 -5 936 -6 936 -21 22 -22 21 -2222 1 c-1222 0 -2590 -2 -3040 -5z
m4983 -371 c20 -20 20 -33 20 -780 l0 -760 -731 0 -731 0 -34 -34 -34 -34 0
-736 0 -736 -1994 0 c-1843 0 -1996 1 -2011 17 -15 15 -16 132 -13 1533 2
1267 5 1520 17 1533 12 16 217 17 2752 17 2726 0 2739 0 2759 -20z m923 -1767
c16 -15 17 -96 17 -1421 0 -1294 -1 -1407 -17 -1424 -15 -17 -62 -18 -1094
-18 l-1078 0 -20 26 -21 27 0 1386 c0 1257 1 1389 16 1409 9 13 24 26 34 30
11 4 497 5 1082 4 946 -3 1065 -6 1081 -19z m-2433 -2238 l0 -265 -350 0 -350
0 0 265 0 265 350 0 350 0 0 -265z"/>
</g>
</svg>
